<?xml version="1.0" standalone="no"?><!DOCTYPE svg PUBLIC "-//W3C//DTD SVG 1.1//EN" "http://www.w3.org/Graphics/SVG/1.1/DTD/svg11.dtd"><svg t="1756022080797" class="icon" viewBox="0 0 1024 1024" version="1.1" xmlns="http://www.w3.org/2000/svg" p-id="2629" xmlns:xlink="http://www.w3.org/1999/xlink" width="148" height="148"><path d="M613.399893 249.398613q72.799573-7.799467 151.668054-2.597546 12.997973 0.866987 16.46592-6.935894 3.464533-8.666453-6.93248-20.79744-39.000747-34.669227-122.200747-13.868373-11.267413 0.866987-21.66784 4.334933l-45.06624 6.93248q-68.468053 10.400427-143.865173 21.66784l-39.000747 5.198507q-65.867093 6.065493-138.666667 15.598933-24.2688 2.60096-6.93248 14.73536 28.596907 19.06688 93.597014 9.53344 26.86976-7.799467 58.934613-12.1344l34.665813-6.065493q18.199893-6.068907 130.000214-13.001387l39.000746-2.60096z" fill="#303303" p-id="2630"></path><path d="M441.801387 238.134613q-0.866987-24.2688-2.60096-45.069653 0.866987-15.598933-14.73536-19.933867-33.798827-15.598933-49.39776-9.530026-13.868373 7.799467-1.733974 22.531413 20.800853 25.99936 29.467307 57.20064l6.93248 27.733333q10.400427 49.401173 22.534827 61.53216 10.397013 8.669867 13.86496-0.866986 2.60096-8.666453-1.733974-66.730667l-2.597546-26.866347zM630.7328 209.534293q23.401813-47.6672 25.99936-51.131733 11.267413-11.270827 3.467947-19.933867-8.669867-13.868373-37.266774-28.603733-13.001387-7.799467-26.866346-0.863573-8.669867 3.464533-2.60096 13.86496 8.669867 25.99936-7.799467 93.600426l-11.264 35.5328q-15.602347 47.6672-14.73536 63.266134 0.866987 11.267413 13.86496 2.60096 3.467947-3.467947 39.867733-68.468054l17.332907-39.867733zM333.4656 401.066667q-18.199893 41.601707-42.46528 78.001493-15.598933 25.99936-2.60096 51.131733 6.068907 13.001387 21.66784 3.467947 39.000747-26.866347 42.46528-88.40192 3.467947-24.2688-0.866987-44.199253-3.464533-6.065493-8.666453-6.93248-6.065493 0.866987-9.53344 6.93248zM401.066667 427.933013q13.001387 65.000107 65.867093 96.201387 60.665173 36.399787 191.532373 22.531413 19.06688-5.198507 37.266774-12.997973 15.598933-7.80288 15.598933-17.332907 2.60096-6.068907-25.132373-23.401813-44.202667-32.064853-76.26752-67.601067-10.397013-13.86496-13.86496-6.929066-0.866987 0.863573 12.1344 57.197226 6.065493 31.197867-37.266774 33.798827-78.001493 0.866987-114.40128-30.33088-15.598933-13.868373-21.66784-37.266773-6.065493-19.06688-15.598933-22.534827-10.400427-6.065493-16.46592-2.60096-3.467947 0.866987-1.733973 11.267413z" fill="#303303" p-id="2631"></path><path d="M484.266667 381.999787q19.06688 18.199893 38.13376 39.000746 8.666453 8.666453 20.800853 9.53344 7.799467 0 11.264-9.53344 3.467947-10.400427-1.73056-31.197866-3.467947-13.868373-24.2688-26.002774-50.264747-20.800853-61.53216-17.332906-3.467947 3.467947-3.467947 12.1344 2.60096 8.666453 20.800854 23.3984zM650.666667 365.533867q31.197867 23.3984 64.136533 51.131733 10.397013 8.669867 22.528 8.669867 7.80288-0.8704 11.267413-10.400427 3.467947-11.267413-4.334933-33.80224-10.397013-31.197867-97.928533-51.99872-11.267413-0.866987-16.469334 0-3.464533 3.464533-2.597546 12.997973 3.464533 8.669867 23.3984 23.401814zM191.3344 655.0016q-18.199893 47.663787-44.202667 91.866453-13.86496 24.265387-0.863573 50.264747 6.065493 13.868373 21.664427 3.467947 39.867733-31.197867 44.202666-102.26688 3.464533-24.2688-2.60096-44.202667-3.467947-6.065493-8.669866-6.929067-6.065493 0.863573-9.530027 7.799467zM246.801067 690.5344q23.3984 91.866453 121.33376 130.000213 85.797547 37.266773 129.9968 9.53344 16.469333-10.400427-1.73056-29.467306-36.399787-42.468693-74.533547-111.80032-2.60096-5.20192-7.799467-4.334934-3.467947 2.60096-1.733973 13.868374 18.199893 75.400533 7.799467 86.664533-6.065493 3.467947-40.73472-4.334933-72.799573-18.19648-116.998827-91.86304-10.400427-13.868373-14.731947-11.264-3.467947 3.464533-0.866986 12.997973zM298.8032 614.263467q41.598293 52.002133 50.264747 53.736106 6.065493 0.866987 11.264-7.799466 5.20192-8.669867 2.60096-29.467307-0.866987-13.86496-19.933867-27.733333-45.06624-26.862933-56.333653-23.3984-3.464533 0.866987-4.334934 10.400426 0.8704 7.799467 16.469334 24.265387zM435.73248 617.734827q16.46592 18.199893 33.80224 39.867733 7.799467 8.66304 18.199893 10.397013 6.065493 0.866987 11.264-7.799466 5.20192-8.669867 1.733974-29.467307-3.464533-20.800853-64.13312-45.933227-10.400427-3.467947-14.731947-1.733973-3.467947 0.866987-3.467947 10.400427 0.866987 7.799467 17.332907 24.2688zM544.068267 648.065707q-13.868373 42.468693-34.669227 83.2-11.264 23.401813 1.733973 43.33568 6.065493 11.264 18.199894 1.73056 33.798827-28.60032 34.665813-91.866454 0.866987-21.664427-4.334933-37.266773-3.464533-6.065493-7.796054-6.065493-5.20192 0.866987-7.799466 6.93248zM594.333013 712.198827q33.798827 96.201387 137.79968 126.532266 94.467413 32.068267 139.537067 0.8704 16.462507-11.267413-3.47136-31.20128-38.997333-37.266773-81.466027-102.26688-3.464533-6.065493-8.666453-4.334933-3.464533 3.467947-0.866987 14.73536 16.469333 70.198613 6.068907 80.59904-6.068907 3.467947-42.468693-0.866987-45.06624-8.666453-71.0656-25.99936-29.467307-19.06688-64.136534-67.601066-5.198507-8.666453-11.264-4.334934-3.467947 3.467947 0 13.868374zM647.202133 638.532267q19.063467 18.199893 38.130347 39.000746 8.669867 8.669867 20.800853 9.53344 7.799467 0 11.264-9.53344 3.467947-10.400427-1.73056-31.197866-3.467947-13.868373-24.2688-26.002774-50.264747-20.79744-61.53216-17.332906-3.464533 3.467947-3.464533 12.1344 2.597547 8.666453 20.79744 23.3984zM770.266453 594.333013q39.867733 31.197867 88.40192 76.26752 13.86496 13.86496 26.862934 17.332907 6.068907 0 12.1344-7.799467 8.669867-11.267413-4.334934-45.06624-13.86496-42.468693-123.931306-65.000106-7.799467-3.467947-8.666454 6.065493 0.866987 11.264 9.53344 18.199893z" fill="#303303" p-id="2632"></path></svg>